<svg id="Capa_1" data-name="Capa 1" xmlns="http://www.w3.org/2000/svg" viewBox="0 0 960 273.6"><defs><style>.cls-1{fill:#771755;}.cls-2{fill:#d48200;}</style></defs><title>fondo</title><rect class="cls-1" y="0.06" width="960.87" height="275.76"/><path class="cls-2" d="M339.71,336.12l37.17-23.25-85-130.68L287,185.07c0,.05-.6.72-.57.75a15.16,15.16,0,0,1-25.69,16.08l-.08-.13-5.89,3.69Z"/><path class="cls-2" d="M291.3,156.28a19.77,19.77,0,1,1,6.39-27.18A19.79,19.79,0,0,1,291.3,156.28Z"/><path class="cls-2" d="M258.94,100.54a19.76,19.76,0,1,1,6.4-27.18A19.8,19.8,0,0,1,258.94,100.54Z"/><path class="cls-2" d="M189.7,42.09a12,12,0,1,1,3.9-16.56A12.06,12.06,0,0,1,189.7,42.09Z"/><path class="cls-2" d="M197.84,139.24a19.87,19.87,0,1,1,6.43-27.35A19.91,19.91,0,0,1,197.84,139.24Z"/><polygon class="cls-2" points="341.5 406.28 170.43 132.44 204.04 111.53 375.08 385.36 341.5 406.28"/><polygon class="cls-2" points="243.39 413.32 108.28 196.26 140.53 173.67 279.87 396.84 243.39 413.32"/><path class="cls-2" d="M281.41,412.49l52.86-33.06-131-209.5-5.95,3.36c.59.74.12,2.28.64,3.12,6.88,11,4.15,25.33-6.85,32.22s-26.07,4-32.95-7c-.52-.85-2-1.69-2.4-2.56L150.4,203Z"/><path class="cls-2" d="M347.47,214.21l-4.13-5.9c1.06,2.12,2.53,3.89,3.71,5.94Z"/><polygon class="cls-2" points="399.04 366.12 402.43 325 423.05 323.54 387.89 273.63 297.51 128.99 263.92 149.89 399.04 366.12"/><path class="cls-2" d="M416.62,329.29l25.09-15.7L400.59,247l-3.34,1.94s-.4.49-.38.51a10.23,10.23,0,0,1-17.35,10.86l0-.09-4,2.49Z"/><path class="cls-2" d="M410.08,233.16A19.77,19.77,0,1,1,416.47,206,19.8,19.8,0,0,1,410.08,233.16Z"/><polygon class="cls-2" points="515.88 439.7 519.27 398.56 522.85 376.6 504.73 347.2 414.36 202.56 380.76 223.46 515.88 439.7"/><path class="cls-2" d="M135.34,202.38a19.76,19.76,0,1,1,6.39-27.2A19.81,19.81,0,0,1,135.34,202.38Z"/><path class="cls-2" d="M98.58,359.16l37.17-23.24-85-130.68-4.95,2.87c0,.05-.6.72-.57.75a15.15,15.15,0,1,1-25.69,16.08l-.08-.13-5.88,3.7Z"/><path class="cls-2" d="M49.95,179.21A19.76,19.76,0,1,1,56.34,152,19.79,19.79,0,0,1,49.95,179.21Z"/><path class="cls-2" d="M77.74,110.75a19.76,19.76,0,1,1,6.4-27.18A19.8,19.8,0,0,1,77.74,110.75Z"/><polygon class="cls-2" points="100.38 429.32 -70.69 155.49 -37.09 134.58 133.96 408.4 100.38 429.32"/><polygon class="cls-2" points="2.27 436.36 -132.84 219.3 -100.59 196.71 38.75 419.87 2.27 436.36"/><path class="cls-2" d="M40.29,435.53l52.86-33.07L-37.88,193l-5.95,3.35c.59.74.12,2.29.64,3.12,6.88,11,4.15,25.33-6.85,32.23s-26.07,4-32.95-7c-.52-.85-2-1.7-2.4-2.57L-90.73,226Z"/><path class="cls-2" d="M106.34,237.25l-4.13-5.9c1.06,2.12,2.53,3.9,3.71,5.94Z"/><polygon class="cls-2" points="157.91 389.16 161.3 348.03 181.92 346.58 146.76 296.67 56.39 152.03 22.8 172.93 157.91 389.16"/><path class="cls-2" d="M175.49,352.33l25.09-15.7L125,214.88,156.12,272l-34.85-54.66a10.23,10.23,0,0,1-17.35,10.86l34.42,55.08L99.9,230.58Z"/><path class="cls-2" d="M819,332.15l-34,21.25L692.27,208.46l4.35-2.92s.83-.21.85-.17A13.87,13.87,0,1,0,721,190.69l-.08-.12,5.4-3.36Z"/><path class="cls-2" d="M671.63,198.1a18.09,18.09,0,1,0-24.92-5.65A18.12,18.12,0,0,0,671.63,198.1Z"/><path class="cls-2" d="M618,68.14a11,11,0,1,0-15.18-3.44A11,11,0,0,0,618,68.14Z"/><path class="cls-2" d="M694.68,113.83a18.19,18.19,0,1,0-25.08-5.68A18.22,18.22,0,0,0,694.68,113.83Z"/><polygon class="cls-2" points="856.7 339.18 700.09 88.56 669.4 107.81 826.02 358.42 856.7 339.18"/><polygon class="cls-2" points="932.99 310.73 808.65 112.47 777.12 129.93 904.79 334.12 932.99 310.73"/><path class="cls-2" d="M917,341.67l-48.41,30.21L748.88,180l5.15-3.55c.37.79,1.83,1,2.3,1.78,6.29,10.07,19.18,13.58,29.26,7.3s13.75-19.84,7.47-29.91c-.49-.77-.6-2.32-1.15-3l5.37-2.82Z"/><path class="cls-2" d="M696.3,267l-3.2-5.77c1.32,1.73,2.19,3.65,3.39,5.44Z"/><polygon class="cls-2" points="800.58 370.4 765.38 356.68 755.91 373.06 728.96 324.1 646.25 191.71 676.92 172.46 800.58 370.4"/><path class="cls-2" d="M745.22,341.26l-19,11.84L660.76,250.46l2.42-1.63s.47-.11.48-.09a7.73,7.73,0,0,0,13.12-8.19l0-.06,3-1.88Z"/><path class="cls-2" d="M802.9,136.9A18.09,18.09,0,1,0,778,131.25,18.14,18.14,0,0,0,802.9,136.9Z"/><path class="cls-2" d="M1024.67,292.11l-34,21.25L888.34,146.84l4.35-2.92s.83-.2.85-.17a13.87,13.87,0,1,0,23.54-14.68L917,129l5.4-3.36Z"/><path class="cls-2" d="M867.33,136a18.09,18.09,0,1,0-24.92-5.65A18.12,18.12,0,0,0,867.33,136Z"/><path class="cls-2" d="M831.09,64.35a11,11,0,1,0-15.19-3.44A11,11,0,0,0,831.09,64.35Z"/><path class="cls-2" d="M890.76,52.21a18.19,18.19,0,1,0-25.08-5.69A18.23,18.23,0,0,0,890.76,52.21Z"/><polygon class="cls-2" points="1052.77 277.56 896.16 26.94 865.48 46.2 1022.09 296.8 1052.77 277.56"/><path class="cls-2" d="M1082,230.63l-48.41,30.21L913.83,69,919,65.43c.37.79,1.83,1,2.3,1.78,6.29,10.07,19.18,13.58,29.26,7.3A22.59,22.59,0,0,0,960,62.37c1.9-5.81,6.43-12.31,3-17.78-.49-.76-.59-2.32-1.15-3l5.37-2.82Z"/><path class="cls-2" d="M892.38,205.39l-3.2-5.77c1.32,1.72,2.19,3.64,3.39,5.44Z"/><polygon class="cls-2" points="996.64 308.78 961.45 295.06 951.98 311.44 925.03 262.49 842.32 130.1 872.99 110.85 996.64 308.78"/><path class="cls-2" d="M865.37,210.6,936,323l23.25-14.52L888.64,196.09s-3.65,2.35-3.64,2.37a9.48,9.48,0,0,1-16.08,10Z"/><path class="cls-2" d="M399.19,208.18a24.22,24.22,0,1,0-33.4-7.57A24.27,24.27,0,0,0,399.19,208.18Z"/><polygon class="cls-2" points="614.95 508.28 406.39 174.53 365.52 200.17 574.09 533.89 614.95 508.28"/><polygon class="cls-2" points="675.1 404.57 509.51 140.55 467.53 163.8 637.54 435.72 675.1 404.57"/><path class="cls-2" d="M653.86,445.77,589.39,486,429.92,230.51l6.85-4.73c.49,1.05,2.44,1.35,3.07,2.37,8.38,13.41,25.53,18.08,39,9.72s18.31-26.42,10-39.83c-.65-1-.79-3.09-1.53-4l7.15-3.76Z"/><path class="cls-2" d="M501.76,173.46a24.09,24.09,0,1,0-33.21-7.53A24.16,24.16,0,0,0,501.76,173.46Z"/><path class="cls-2" d="M569.61,144.06a24.09,24.09,0,1,0-33.19-7.52A24.13,24.13,0,0,0,569.61,144.06Z"/><path class="cls-2" d="M452.41,50a14.68,14.68,0,1,0-20.23-4.58A14.71,14.71,0,0,0,452.41,50Z"/><path class="cls-2" d="M603.13,236.66,598.87,229c1.76,2.29,2.92,4.85,4.52,7.24Z"/><polygon class="cls-2" points="741.99 374.35 695.12 356.07 682.51 377.89 646.62 312.7 536.48 136.39 577.32 110.76 741.99 374.35"/><path class="cls-2" d="M692.24,373.92,661.64,393l-93-147.88,45.92,64.62-41.25-67.4a12.47,12.47,0,1,0,21.16-13.2l41.94,67.15L599.27,226Z"/></svg>